<mxfile host="app.diagrams.net" modified="2023-08-27T17:33:54.739Z" agent="Mozilla/5.0 (X11; Linux x86_64; rv:109.0) Gecko/20100101 Firefox/116.0" etag="Hxw0mRRU_tMcmKVXCrsx" version="21.6.9" type="device">
  <diagram name="Page-1" id="2YBvvXClWsGukQMizWep">
    <mxGraphModel dx="978" dy="494" grid="1" gridSize="10" guides="1" tooltips="1" connect="1" arrows="1" fold="1" page="1" pageScale="1" pageWidth="850" pageHeight="1100" math="0" shadow="0">
      <root>
        <mxCell id="0" />
        <mxCell id="1" parent="0" />
        <mxCell id="aM9ryv3xv72pqoxQDRHE-1" value="Agent" style="shape=umlLifeline;perimeter=lifelinePerimeter;whiteSpace=wrap;html=1;container=0;dropTarget=0;collapsible=0;recursiveResize=0;outlineConnect=0;portConstraint=eastwest;newEdgeStyle={&quot;edgeStyle&quot;:&quot;elbowEdgeStyle&quot;,&quot;elbow&quot;:&quot;vertical&quot;,&quot;curved&quot;:0,&quot;rounded&quot;:0};fontFamily=Linux Libertine;verticalAlign=middle;spacing=2;" parent="1" vertex="1">
          <mxGeometry x="50" y="30" width="100" height="330" as="geometry" />
        </mxCell>
        <mxCell id="aM9ryv3xv72pqoxQDRHE-2" value="" style="html=1;points=[];perimeter=orthogonalPerimeter;outlineConnect=0;targetShapes=umlLifeline;portConstraint=eastwest;newEdgeStyle={&quot;edgeStyle&quot;:&quot;elbowEdgeStyle&quot;,&quot;elbow&quot;:&quot;vertical&quot;,&quot;curved&quot;:0,&quot;rounded&quot;:0};fontFamily=Linux Libertine;" parent="aM9ryv3xv72pqoxQDRHE-1" vertex="1">
          <mxGeometry x="45" y="70" width="10" height="250" as="geometry" />
        </mxCell>
        <mxCell id="aM9ryv3xv72pqoxQDRHE-3" value="Init()" style="html=1;verticalAlign=bottom;startArrow=oval;endArrow=block;startSize=8;edgeStyle=elbowEdgeStyle;elbow=vertical;curved=0;rounded=0;fontFamily=Latin Modern Mono Light;spacing=3;" parent="aM9ryv3xv72pqoxQDRHE-1" target="aM9ryv3xv72pqoxQDRHE-2" edge="1">
          <mxGeometry relative="1" as="geometry">
            <mxPoint x="-15" y="70" as="sourcePoint" />
          </mxGeometry>
        </mxCell>
        <mxCell id="aM9ryv3xv72pqoxQDRHE-5" value="H.V.GraphGenerator" style="shape=umlLifeline;perimeter=lifelinePerimeter;whiteSpace=wrap;html=1;container=0;dropTarget=0;collapsible=0;recursiveResize=0;outlineConnect=0;portConstraint=eastwest;newEdgeStyle={&quot;edgeStyle&quot;:&quot;elbowEdgeStyle&quot;,&quot;elbow&quot;:&quot;vertical&quot;,&quot;curved&quot;:0,&quot;rounded&quot;:0};fontFamily=Linux Libertine;" parent="1" vertex="1">
          <mxGeometry x="210" y="30" width="120" height="330" as="geometry" />
        </mxCell>
        <mxCell id="aM9ryv3xv72pqoxQDRHE-6" value="" style="html=1;points=[];perimeter=orthogonalPerimeter;outlineConnect=0;targetShapes=umlLifeline;portConstraint=eastwest;newEdgeStyle={&quot;edgeStyle&quot;:&quot;elbowEdgeStyle&quot;,&quot;elbow&quot;:&quot;vertical&quot;,&quot;curved&quot;:0,&quot;rounded&quot;:0};fontFamily=Linux Libertine;" parent="aM9ryv3xv72pqoxQDRHE-5" vertex="1">
          <mxGeometry x="55" y="80" width="10" height="230" as="geometry" />
        </mxCell>
        <mxCell id="vcmvwX2yCh51Hj_THdLI-1" value="" style="html=1;points=[];perimeter=orthogonalPerimeter;outlineConnect=0;targetShapes=umlLifeline;portConstraint=eastwest;newEdgeStyle={&quot;edgeStyle&quot;:&quot;elbowEdgeStyle&quot;,&quot;elbow&quot;:&quot;vertical&quot;,&quot;curved&quot;:0,&quot;rounded&quot;:0};" parent="aM9ryv3xv72pqoxQDRHE-5" vertex="1">
          <mxGeometry x="60" y="280" width="10" height="20" as="geometry" />
        </mxCell>
        <mxCell id="vcmvwX2yCh51Hj_THdLI-2" value="&lt;div&gt;&lt;font face=&quot;Linux Libertine&quot;&gt;1. Create graph&lt;/font&gt;&lt;/div&gt;&lt;div&gt;&lt;font face=&quot;Linux Libertine&quot;&gt;2. Merge with road network&lt;/font&gt;&lt;/div&gt;" style="html=1;align=left;spacingLeft=37;endArrow=block;rounded=0;edgeStyle=orthogonalEdgeStyle;curved=0;rounded=0;exitX=1;exitY=0.474;exitDx=0;exitDy=0;exitPerimeter=0;verticalAlign=middle;spacingTop=36;jumpSize=6;" parent="aM9ryv3xv72pqoxQDRHE-5" target="vcmvwX2yCh51Hj_THdLI-1" edge="1">
          <mxGeometry relative="1" as="geometry">
            <mxPoint x="65" y="178.5" as="sourcePoint" />
            <Array as="points">
              <mxPoint x="65" y="270" />
              <mxPoint x="100" y="270" />
              <mxPoint x="100" y="280" />
            </Array>
          </mxGeometry>
        </mxCell>
        <mxCell id="fW77yYEujU_hWirH-o37-3" value="" style="html=1;points=[];perimeter=orthogonalPerimeter;outlineConnect=0;targetShapes=umlLifeline;portConstraint=eastwest;newEdgeStyle={&quot;edgeStyle&quot;:&quot;elbowEdgeStyle&quot;,&quot;elbow&quot;:&quot;vertical&quot;,&quot;curved&quot;:0,&quot;rounded&quot;:0};" parent="aM9ryv3xv72pqoxQDRHE-5" vertex="1">
          <mxGeometry x="60" y="100" width="10" height="20" as="geometry" />
        </mxCell>
        <mxCell id="fW77yYEujU_hWirH-o37-4" value="&lt;font face=&quot;Linux Libertine&quot;&gt;prepare geometries&lt;br&gt;&lt;/font&gt;" style="html=1;align=left;spacingLeft=2;endArrow=block;rounded=0;edgeStyle=orthogonalEdgeStyle;curved=0;rounded=0;" parent="aM9ryv3xv72pqoxQDRHE-5" source="aM9ryv3xv72pqoxQDRHE-6" target="fW77yYEujU_hWirH-o37-3" edge="1">
          <mxGeometry relative="1" as="geometry">
            <mxPoint x="-35" y="120" as="sourcePoint" />
            <Array as="points">
              <mxPoint x="100" y="90" />
              <mxPoint x="100" y="100" />
            </Array>
          </mxGeometry>
        </mxCell>
        <mxCell id="aM9ryv3xv72pqoxQDRHE-7" value="Generate()" style="html=1;verticalAlign=bottom;endArrow=block;edgeStyle=elbowEdgeStyle;elbow=vertical;curved=0;rounded=0;fontFamily=Latin Modern Mono Light;spacing=3;" parent="1" source="aM9ryv3xv72pqoxQDRHE-2" target="aM9ryv3xv72pqoxQDRHE-6" edge="1">
          <mxGeometry relative="1" as="geometry">
            <mxPoint x="205" y="120" as="sourcePoint" />
            <Array as="points">
              <mxPoint x="190" y="110" />
            </Array>
          </mxGeometry>
        </mxCell>
        <mxCell id="aM9ryv3xv72pqoxQDRHE-8" value="return hybrid visibility graph" style="html=1;verticalAlign=bottom;endArrow=open;dashed=1;endSize=8;edgeStyle=elbowEdgeStyle;elbow=vertical;curved=0;rounded=0;fontFamily=Linux Libertine;spacing=3;" parent="1" source="aM9ryv3xv72pqoxQDRHE-6" target="aM9ryv3xv72pqoxQDRHE-2" edge="1">
          <mxGeometry relative="1" as="geometry">
            <mxPoint x="205" y="195" as="targetPoint" />
            <Array as="points">
              <mxPoint x="250" y="340" />
              <mxPoint x="240" y="570" />
              <mxPoint x="240" y="600" />
              <mxPoint x="270" y="320" />
              <mxPoint x="240" y="310" />
              <mxPoint x="220" y="220" />
              <mxPoint x="250" y="230" />
              <mxPoint x="200" y="270" />
            </Array>
          </mxGeometry>
        </mxCell>
        <mxCell id="zFFP4pUxAyyu4GTBcuHr-1" value="&lt;div&gt;VisibilityGraphGenerator&lt;/div&gt;" style="shape=umlLifeline;perimeter=lifelinePerimeter;whiteSpace=wrap;html=1;container=1;dropTarget=0;collapsible=0;recursiveResize=0;outlineConnect=0;portConstraint=eastwest;newEdgeStyle={&quot;edgeStyle&quot;:&quot;elbowEdgeStyle&quot;,&quot;elbow&quot;:&quot;vertical&quot;,&quot;curved&quot;:0,&quot;rounded&quot;:0};fontFamily=Linux Libertine;" parent="1" vertex="1">
          <mxGeometry x="380" y="30" width="140" height="330" as="geometry" />
        </mxCell>
        <mxCell id="zFFP4pUxAyyu4GTBcuHr-2" value="" style="html=1;points=[];perimeter=orthogonalPerimeter;outlineConnect=0;targetShapes=umlLifeline;portConstraint=eastwest;newEdgeStyle={&quot;edgeStyle&quot;:&quot;elbowEdgeStyle&quot;,&quot;elbow&quot;:&quot;vertical&quot;,&quot;curved&quot;:0,&quot;rounded&quot;:0};fontFamily=Linux Libertine;" parent="zFFP4pUxAyyu4GTBcuHr-1" vertex="1">
          <mxGeometry x="65" y="140" width="10" height="110" as="geometry" />
        </mxCell>
        <mxCell id="TJ2kXIVCb5EfAZxdPqK8-9" value="" style="html=1;points=[];perimeter=orthogonalPerimeter;outlineConnect=0;targetShapes=umlLifeline;portConstraint=eastwest;newEdgeStyle={&quot;edgeStyle&quot;:&quot;elbowEdgeStyle&quot;,&quot;elbow&quot;:&quot;vertical&quot;,&quot;curved&quot;:0,&quot;rounded&quot;:0};" parent="zFFP4pUxAyyu4GTBcuHr-1" vertex="1">
          <mxGeometry x="70" y="180" width="10" height="20" as="geometry" />
        </mxCell>
        <mxCell id="TJ2kXIVCb5EfAZxdPqK8-10" value="&lt;font face=&quot;Linux Libertine&quot;&gt;get visibility neighbors for vertex&lt;br&gt;&lt;/font&gt;" style="html=1;align=left;spacingLeft=2;endArrow=block;rounded=0;edgeStyle=orthogonalEdgeStyle;curved=0;rounded=0;fontFamily=Latin Modern Mono Light;" parent="zFFP4pUxAyyu4GTBcuHr-1" target="TJ2kXIVCb5EfAZxdPqK8-9" edge="1">
          <mxGeometry relative="1" as="geometry">
            <mxPoint x="75" y="170" as="sourcePoint" />
            <Array as="points">
              <mxPoint x="110" y="170" />
              <mxPoint x="110" y="180" />
              <mxPoint x="75" y="180" />
            </Array>
            <mxPoint as="offset" />
          </mxGeometry>
        </mxCell>
        <mxCell id="TJ2kXIVCb5EfAZxdPqK8-14" value="return grouped visibility neighbors" style="html=1;align=left;spacingLeft=2;endArrow=block;rounded=0;edgeStyle=orthogonalEdgeStyle;curved=0;rounded=0;fontFamily=Linux Libertine;dashed=1;" parent="zFFP4pUxAyyu4GTBcuHr-1" source="TJ2kXIVCb5EfAZxdPqK8-9" edge="1">
          <mxGeometry x="-0.0769" relative="1" as="geometry">
            <mxPoint x="100" y="180" as="sourcePoint" />
            <Array as="points">
              <mxPoint x="110" y="200" />
              <mxPoint x="110" y="210" />
            </Array>
            <mxPoint x="75" y="210" as="targetPoint" />
            <mxPoint as="offset" />
          </mxGeometry>
        </mxCell>
        <mxCell id="zFFP4pUxAyyu4GTBcuHr-8" value="&lt;div&gt;determine visibility edges&lt;/div&gt;" style="html=1;verticalAlign=bottom;endArrow=block;edgeStyle=elbowEdgeStyle;elbow=vertical;curved=0;rounded=0;fontFamily=Linux Libertine;spacing=3;" parent="1" target="zFFP4pUxAyyu4GTBcuHr-2" edge="1">
          <mxGeometry width="80" relative="1" as="geometry">
            <mxPoint x="275" y="170" as="sourcePoint" />
            <mxPoint x="400" y="190" as="targetPoint" />
            <Array as="points">
              <mxPoint x="440" y="170" />
              <mxPoint x="360" y="120" />
              <mxPoint x="440" y="100" />
              <mxPoint x="410" y="130" />
              <mxPoint x="320" y="220" />
            </Array>
          </mxGeometry>
        </mxCell>
        <mxCell id="zFFP4pUxAyyu4GTBcuHr-9" value="&lt;div&gt;return visibility information&lt;br&gt;&lt;/div&gt;" style="html=1;verticalAlign=bottom;endArrow=open;dashed=1;endSize=8;edgeStyle=elbowEdgeStyle;elbow=vertical;curved=0;rounded=0;fontFamily=Linux Libertine;spacing=3;" parent="1" source="zFFP4pUxAyyu4GTBcuHr-2" edge="1">
          <mxGeometry relative="1" as="geometry">
            <mxPoint x="275" y="280" as="targetPoint" />
            <Array as="points">
              <mxPoint x="440" y="280" />
              <mxPoint x="390" y="270" />
              <mxPoint x="410" y="190" />
              <mxPoint x="420" y="230" />
              <mxPoint x="430" y="190" />
            </Array>
            <mxPoint x="460" y="190" as="sourcePoint" />
          </mxGeometry>
        </mxCell>
        <mxCell id="zFFP4pUxAyyu4GTBcuHr-11" value="return" style="html=1;verticalAlign=bottom;endArrow=open;dashed=1;endSize=8;edgeStyle=elbowEdgeStyle;elbow=vertical;curved=0;rounded=0;fontFamily=Linux Libertine;spacing=3;" parent="1" source="aM9ryv3xv72pqoxQDRHE-2" edge="1">
          <mxGeometry relative="1" as="geometry">
            <mxPoint x="30" y="350" as="targetPoint" />
            <Array as="points">
              <mxPoint x="80" y="350" />
              <mxPoint x="80" y="590" />
              <mxPoint x="70" y="430" />
              <mxPoint x="70" y="330" />
              <mxPoint x="60" y="250" />
              <mxPoint x="135" y="310" />
              <mxPoint x="165" y="320" />
              <mxPoint x="115" y="360" />
            </Array>
            <mxPoint x="200" y="310" as="sourcePoint" />
          </mxGeometry>
        </mxCell>
        <mxCell id="TJ2kXIVCb5EfAZxdPqK8-11" value="&lt;font face=&quot;Linux Libertine&quot;&gt;for each vertex&lt;br&gt;&lt;/font&gt;" style="shape=umlFrame;whiteSpace=wrap;html=1;pointerEvents=0;width=60;height=40;strokeColor=#757575;fontColor=#757575;" parent="1" vertex="1">
          <mxGeometry x="370" y="190" width="320" height="60" as="geometry" />
        </mxCell>
      </root>
    </mxGraphModel>
  </diagram>
</mxfile>
